<svg width="512" height="512" viewBox="0 0 512 512" fill="none" xmlns="http://www.w3.org/2000/svg">
  <defs>
    <linearGradient id="bg_grad" x1="0" y1="0" x2="512" y2="512" gradientUnits="userSpaceOnUse">
      <stop offset="0" stop-color="#86A789"/>
      <stop offset="1" stop-color="#4F6F52"/>
    </linearGradient>
    <linearGradient id="skin_grad" x1="256" y1="180" x2="256" y2="400" gradientUnits="userSpaceOnUse">
      <stop offset="0" stop-color="#3B2219"/>
      <stop offset="1" stop-color="#1A1A1A"/>
    </linearGradient>
  </defs>
  <circle cx="256" cy="256" r="256" fill="url(#bg_grad)"/>
  <path d="M120 480C120 420 160 380 256 380C352 380 392 420 392 480V512H120V480Z" fill="#EAD8C0"/>
  <rect x="206" y="160" width="100" height="240" rx="50" fill="url(#skin_grad)"/>
  <circle cx="256" cy="220" r="80" fill="url(#skin_grad)"/>
  <circle cx="256" cy="140" r="40" fill="#000000"/>
  <path d="M176 180C176 140 210 120 256 120C302 120 336 140 336 180V250C336 250 256 270 256 270C256 270 176 250 176 250V180Z" fill="#000000"/>
  <circle cx="226" cy="215" r="5" fill="#FFFFFF" fill-opacity="0.9"/>
  <circle cx="286" cy="215" r="5" fill="#FFFFFF" fill-opacity="0.9"/>
  <path d="M230 255C230 255 243 270 256 270C269 270 282 255 282 255" stroke="#FFFFFF" stroke-opacity="0.9" stroke-width="4" stroke-linecap="round"/>
</svg>
