<svg width="512" height="512" viewBox="0 0 512 512" fill="none" xmlns="http://www.w3.org/2000/svg">
  <defs>
    <linearGradient id="bg_grad" x1="0" y1="0" x2="512" y2="512" gradientUnits="userSpaceOnUse">
      <stop offset="0" stop-color="#B2C8BA"/>
      <stop offset="1" stop-color="#FAFAF9"/>
    </linearGradient>
    <linearGradient id="skin_grad" x1="256" y1="180" x2="256" y2="400" gradientUnits="userSpaceOnUse">
      <stop offset="0" stop-color="#FFDBAC"/>
      <stop offset="1" stop-color="#F1C27D"/>
    </linearGradient>
  </defs>
  <circle cx="256" cy="256" r="256" fill="url(#bg_grad)"/>
  <path d="M120 480C120 420 160 380 256 380C352 380 392 420 392 480V512H120V480Z" fill="#967E76"/>
  <rect x="206" y="160" width="100" height="240" rx="50" fill="url(#skin_grad)"/>
  <circle cx="256" cy="220" r="80" fill="url(#skin_grad)"/>
  <path d="M165 210C165 140 210 100 256 100C302 100 347 140 347 210V300C347 300 256 320 256 320C256 320 165 300 165 300V210Z" fill="#A52A2A"/>
  <circle cx="226" cy="215" r="5" fill="#1C1C1E"/>
  <circle cx="286" cy="215" r="5" fill="#1C1C1E"/>
  <path d="M230 255C230 255 243 270 256 270C269 270 282 255 282 255" stroke="#1C1C1E" stroke-width="4" stroke-linecap="round"/>
</svg>
