<svg width="512" height="512" viewBox="0 0 512 512" fill="none" xmlns="http://www.w3.org/2000/svg">
  <defs>
    <linearGradient id="bg_grad" x1="0" y1="0" x2="512" y2="512" gradientUnits="userSpaceOnUse">
      <stop offset="0" stop-color="#EAD8C0"/>
      <stop offset="1" stop-color="#DBC4A1"/>
    </linearGradient>
    <linearGradient id="skin_grad" x1="256" y1="180" x2="256" y2="400" gradientUnits="userSpaceOnUse">
      <stop offset="0" stop-color="#C68642"/>
      <stop offset="1" stop-color="#8D5524"/>
    </linearGradient>
  </defs>
  <circle cx="256" cy="256" r="256" fill="url(#bg_grad)"/>
  <path d="M120 480C120 420 160 380 256 380C352 380 392 420 392 480V512H120V480Z" fill="#4F6F52"/>
  <rect x="206" y="160" width="100" height="240" rx="50" fill="url(#skin_grad)"/>
  <circle cx="256" cy="220" r="80" fill="url(#skin_grad)"/>
  <path d="M186 180C186 160 210 145 256 145C302 145 326 160 326 180V200H186V180Z" fill="#2A1B0E" fill-opacity="0.3"/>
  <circle cx="226" cy="215" r="5" fill="#FFFFFF" fill-opacity="0.9"/>
  <circle cx="286" cy="215" r="5" fill="#FFFFFF" fill-opacity="0.9"/>
  <path d="M230 260C230 260 243 275 256 275C269 275 282 260 282 260" stroke="#FFFFFF" stroke-opacity="0.9" stroke-width="4" stroke-linecap="round"/>
</svg>
