<svg width="512" height="512" viewBox="0 0 512 512" fill="none" xmlns="http://www.w3.org/2000/svg">
  <defs>
    <linearGradient id="bg_grad" x1="0" y1="0" x2="512" y2="512" gradientUnits="userSpaceOnUse">
      <stop offset="0" stop-color="#4F6F52"/>
      <stop offset="1" stop-color="#86A789"/>
    </linearGradient>
    <linearGradient id="skin_grad" x1="256" y1="180" x2="256" y2="400" gradientUnits="userSpaceOnUse">
      <stop offset="0" stop-color="#8D5524"/>
      <stop offset="1" stop-color="#3B2219"/>
    </linearGradient>
  </defs>
  <circle cx="256" cy="256" r="256" fill="url(#bg_grad)"/>
  <path d="M120 480C120 420 160 380 256 380C352 380 392 420 392 480V512H120V480Z" fill="#D27666"/>
  <rect x="206" y="160" width="100" height="240" rx="50" fill="url(#skin_grad)"/>
  <circle cx="256" cy="220" r="80" fill="url(#skin_grad)"/>
  <path d="M186 160C186 130 216 110 256 110C296 110 326 130 326 160V200H186V160Z" fill="#1A1A1A"/>
  <circle cx="226" cy="215" r="5" fill="#FFFFFF" fill-opacity="0.8"/>
  <circle cx="286" cy="215" r="5" fill="#FFFFFF" fill-opacity="0.8"/>
  <path d="M230 260C230 260 243 275 256 275C269 275 282 260 282 260" stroke="#FFFFFF" stroke-opacity="0.8" stroke-width="4" stroke-linecap="round"/>
</svg>
